<svg width="180" height="180" viewBox="0 0 180 180" fill="none" xmlns="http://www.w3.org/2000/svg">
<foreignObject x="0" y="0" width="0" height="0"><div xmlns="http://www.w3.org/1999/xhtml" style="backdrop-filter:blur(16.42px);clip-path:url(#bgblur_0_6995_4467_clip_path);height:100%;width:100%"></div></foreignObject><path data-figma-bg-blur-radius="32.8421" d="M102.545 138.643C101.758 138.643 100.971 138.462 100.261 138.092L77.3806 126.195C70.8881 122.816 65.8093 119.023 61.8434 114.605C53.1633 104.942 48.3339 92.5384 48.2572 79.6714L47.9885 37.3217C47.9565 32.434 51.0972 28.0469 55.7923 26.3947L97.8047 11.6815C100.299 10.7866 103.082 10.7741 105.621 11.6377L147.794 25.8503C152.514 27.4336 155.706 31.7894 155.732 36.6708L156 79.0518C156.084 91.9001 151.42 104.354 142.875 114.123C138.954 118.604 133.92 122.453 127.491 125.895L104.815 138.061C104.112 138.443 103.331 138.637 102.545 138.643Z" fill="url(#paint0_radial_6995_4467)" fill-opacity="0.42"/>
<g clip-path="url(#clip1_6995_4467)">
<path d="M102.786 137.671C102.006 137.679 101.236 137.494 100.545 137.133L78.1278 125.45C72.3958 122.609 67.227 118.749 62.8732 114.058C54.3826 104.635 49.6406 92.4193 49.5463 79.7279L49.2773 38.125C49.2832 35.7593 50.0245 33.4541 51.3984 31.5295C52.7722 29.6048 54.7104 28.1562 56.9439 27.3848L98.1349 12.9298C100.617 12.0599 103.32 12.0599 105.801 12.9298L147.172 26.8461C149.425 27.5771 151.394 28.9962 152.801 30.9043C154.208 32.8123 154.983 35.1137 155.018 37.4853L155.275 79.1219C155.333 91.8001 150.752 104.061 142.397 113.587C138.109 118.329 132.993 122.246 127.299 125.147L105.05 137.11C104.361 137.479 103.591 137.672 102.809 137.671" stroke="url(#paint1_linear_6995_4467)" stroke-width="0.2" stroke-miterlimit="10"/>
<path d="M102.774 136.256C101.994 136.269 101.224 136.087 100.532 135.728L78.6306 124.337C73.0327 121.56 67.9853 117.788 63.7346 113.204C55.4349 103.997 50.7967 92.0616 50.6992 79.6592L50.4414 38.9878C50.4408 36.6754 51.1622 34.4207 52.5047 32.5392C53.8473 30.6576 55.7437 29.2434 57.9286 28.4945L98.279 14.3537C100.708 13.5123 103.349 13.5123 105.777 14.3537L146.229 28.0007C148.422 28.7201 150.336 30.1093 151.701 31.9731C153.066 33.8369 153.813 36.0819 153.839 38.393L154.097 79.0981C154.151 91.4839 149.673 103.461 141.51 112.766C137.322 117.402 132.323 121.232 126.76 124.068L105.004 135.762C104.335 136.121 103.588 136.309 102.83 136.312" stroke="url(#paint2_linear_6995_4467)" stroke-width="0.2" stroke-miterlimit="10"/>
<path d="M102.759 134.843C102.014 134.847 101.279 134.67 100.618 134.327L79.1763 123.216C73.7032 120.502 68.7665 116.818 64.6054 112.342C56.4943 103.329 51.9713 91.6469 51.895 79.5149L51.6484 39.7862C51.649 37.5275 52.3534 35.3254 53.6634 33.4867C54.9733 31.6479 56.8236 30.2643 58.9563 29.5285L98.3203 15.7245C100.693 14.8939 103.278 14.8939 105.651 15.7245L145.172 29.0572C147.305 29.7589 149.167 31.1086 150.499 32.9188C151.83 34.729 152.566 36.9097 152.603 39.1577L152.861 78.9201C152.92 91.0313 148.532 102.742 140.531 111.825C136.439 116.358 131.554 120.105 126.117 122.88L104.877 134.293C104.223 134.647 103.491 134.832 102.748 134.832" stroke="url(#paint3_linear_6995_4467)" stroke-width="0.2" stroke-miterlimit="10"/>
<path d="M102.75 133.428C102.022 133.43 101.303 133.257 100.655 132.923L79.7284 122.025C74.3838 119.379 69.5643 115.781 65.5049 111.408C57.6021 102.632 53.1807 91.2625 53.0747 79.4459L52.8281 40.6487C52.833 38.4444 53.5231 36.2963 54.8025 34.5024C56.0819 32.7086 57.8872 31.358 59.9679 30.638L98.4128 17.1706C100.729 16.3676 103.248 16.3676 105.564 17.1706L144.143 30.0656C146.234 30.7568 148.058 32.0841 149.36 33.8625C150.662 35.6409 151.377 37.7817 151.406 39.9866L151.653 78.8062C151.708 90.6257 147.438 102.056 139.649 110.937C135.645 115.354 130.875 119.008 125.571 121.722L104.824 132.866C104.188 133.212 103.475 133.394 102.75 133.394" stroke="url(#paint4_linear_6995_4467)" stroke-width="0.2" stroke-miterlimit="10"/>
<path d="M102.728 132.014C102.022 132.019 101.325 131.849 100.699 131.52L80.2663 120.892C75.0577 118.301 70.3603 114.788 66.4015 110.522C58.6717 101.956 54.3556 90.8447 54.2739 79.3004L54.0273 41.4459C54.0316 39.2947 54.7054 37.1984 55.9549 35.4485C57.2044 33.6985 58.9675 32.382 60.999 31.6821L98.5024 18.529C100.763 17.7377 103.225 17.7377 105.485 18.529L143.134 31.1883C145.175 31.8598 146.955 33.1535 148.225 34.8881C149.495 36.6227 150.192 38.7116 150.218 40.8623L150.453 78.7505C150.51 90.2817 146.343 101.434 138.741 110.096C134.836 114.411 130.18 117.978 124.999 120.623L104.757 131.498C104.133 131.835 103.436 132.012 102.728 132.014" stroke="url(#paint5_linear_6995_4467)" stroke-width="0.2" stroke-miterlimit="10"/>
<path d="M102.714 130.6C102.024 130.603 101.343 130.437 100.73 130.117L80.813 119.747C75.7291 117.23 71.1449 113.807 67.2845 109.647C59.7536 101.285 55.5464 90.4476 55.4596 79.188L55.2578 42.2762C55.2567 40.1866 55.9029 38.1481 57.1074 36.4416C58.3119 34.7351 60.0153 33.4446 61.9829 32.7481L98.5896 19.9653C100.793 19.2017 103.189 19.2017 105.393 19.9653L142.112 32.3104C144.099 32.9691 145.832 34.2305 147.071 35.9196C148.31 37.6087 148.994 39.642 149.028 41.7375L149.263 78.683C149.312 89.9299 145.245 100.805 137.83 109.254C134.022 113.459 129.484 116.939 124.436 119.523L104.698 130.128C104.086 130.451 103.406 130.624 102.714 130.633" stroke="url(#paint6_linear_6995_4467)" stroke-width="0.2" stroke-miterlimit="10"/>
<path d="M102.701 129.184C102.027 129.184 101.362 129.023 100.762 128.713L81.3494 118.612C76.3969 116.153 71.9309 112.814 68.1683 108.759C60.8279 100.614 56.7279 90.0556 56.646 79.0854L56.4219 43.1051C56.4209 41.061 57.0577 39.0677 58.2433 37.4037C59.4289 35.7397 61.1042 34.4881 63.0348 33.8239L98.6889 21.3217C100.834 20.5751 103.168 20.5751 105.313 21.3217L141.102 33.3974C143.041 34.0347 144.732 35.2637 145.938 36.9121C147.144 38.5605 147.804 40.5456 147.827 42.5889L148.062 78.5916C148.112 89.5538 144.148 100.154 136.921 108.388C133.212 112.484 128.791 115.872 123.874 118.388L104.629 128.724C104.036 129.043 103.375 129.213 102.701 129.218" stroke="url(#paint7_linear_6995_4467)" stroke-width="0.2" stroke-miterlimit="10"/>
<path d="M102.695 127.771C102.039 127.77 101.394 127.613 100.812 127.311L81.903 117.468C77.08 115.079 72.7313 111.832 69.0693 107.884C61.9274 99.9445 57.9397 89.6591 57.8609 78.9741L57.6367 43.9365C57.6508 41.9546 58.2797 40.026 59.4363 38.4176C60.5929 36.8091 62.2201 35.6003 64.0928 34.9583L98.8389 22.7815C100.929 22.052 103.205 22.052 105.295 22.7815L140.142 34.5318C142.034 35.1552 143.684 36.3564 144.86 37.9666C146.036 39.5768 146.679 41.5153 146.699 43.5101L146.923 78.5813C146.935 89.2313 143.056 99.5177 136.017 107.502C132.406 111.495 128.099 114.796 123.307 117.244L104.578 127.344C103.997 127.653 103.352 127.819 102.695 127.827" stroke="url(#paint8_linear_6995_4467)" stroke-width="0.2" stroke-miterlimit="10"/>
<path d="M102.686 126.357C102.046 126.359 101.415 126.204 100.848 125.908L82.455 116.335C77.7602 114.003 73.526 110.84 69.9576 106.997C62.9988 99.2784 59.1103 89.2712 59.0293 78.873L58.8164 44.7669C58.8201 42.8291 59.4264 40.9406 60.5513 39.3638C61.6762 37.787 63.2636 36.6001 65.0931 35.9682L98.8753 24.1281C100.911 23.4156 103.128 23.4156 105.163 24.1281L139.08 35.5642C140.918 36.1717 142.52 37.3386 143.663 38.9018C144.806 40.4651 145.434 42.3468 145.458 44.2843L145.671 78.4016C145.725 88.7891 141.972 98.8359 135.123 106.638C131.621 110.521 127.444 113.734 122.794 116.121L104.558 125.919C103.995 126.22 103.369 126.382 102.731 126.39" stroke="url(#paint9_linear_6995_4467)" stroke-width="0.2" stroke-miterlimit="10"/>
<path d="M102.673 124.943C102.053 124.945 101.441 124.794 100.891 124.505L82.9577 115.19C78.3908 112.928 74.2737 109.851 70.8078 106.111C64.0451 98.602 60.2649 88.872 60.1822 78.7611L59.9805 45.5977C59.981 43.714 60.5688 41.8775 61.6619 40.3444C62.755 38.8114 64.2988 37.6582 66.0779 37.0459L98.9746 25.5762C100.957 24.8913 103.112 24.8913 105.094 25.5762L138.07 36.7092C139.858 37.2967 141.418 38.4294 142.531 39.9487C143.645 41.4681 144.256 43.2981 144.279 45.1824L144.481 78.3234C144.521 88.4254 140.869 98.1933 134.214 105.786C130.794 109.56 126.72 112.682 122.187 114.999L104.456 124.528C103.907 124.822 103.296 124.98 102.673 124.988" stroke="url(#paint10_linear_6995_4467)" stroke-width="0.2" stroke-miterlimit="10"/>
<path d="M102.663 123.517C102.059 123.519 101.463 123.377 100.926 123.102L83.5415 114.056C79.1113 111.857 75.1133 108.876 71.7391 105.257C65.1606 97.9655 61.4869 88.5078 61.4161 78.6817L61.2031 46.4498C61.2063 44.6201 61.7791 42.8369 62.8419 41.3483C63.9046 39.8598 65.4044 38.7401 67.1324 38.145L99.0652 26.9222C100.99 26.2603 103.081 26.2603 105.006 26.9222L137.084 37.7073C138.82 38.278 140.335 39.3777 141.416 40.8527C142.497 42.3277 143.091 44.1041 143.114 45.9336L143.316 78.1879C143.363 88.0027 139.813 97.4939 133.341 104.865C130.024 108.547 126.062 111.589 121.65 113.843L104.423 123.102C103.893 123.389 103.3 123.54 102.697 123.539" stroke="url(#paint11_linear_6995_4467)" stroke-width="0.2" stroke-miterlimit="10"/>
<path d="M102.648 122.094C102.063 122.096 101.487 121.957 100.967 121.689L84.0868 112.902C79.7753 110.772 75.8892 107.869 72.6205 104.339C66.2355 97.2543 62.6699 88.0692 62.6002 78.5266L62.3984 47.2486C62.4013 45.4694 62.9576 43.7352 63.9901 42.2871C65.0225 40.839 66.4799 39.7489 68.1596 39.1682L99.1509 28.3046C101.016 27.6537 103.047 27.6537 104.912 28.3046L136.027 38.8091C137.714 39.3618 139.187 40.4295 140.238 41.8625C141.29 43.2954 141.867 45.0219 141.889 46.7997L142.079 78.1001C142.131 87.6342 138.685 96.8555 132.395 104.014C129.172 107.574 125.328 110.518 121.052 112.7L104.318 121.678C103.806 121.958 103.231 122.105 102.648 122.105" stroke="url(#paint12_linear_6995_4467)" stroke-width="0.2" stroke-miterlimit="10"/>
<path d="M102.637 120.689C102.067 120.693 101.505 120.559 101 120.296L84.6247 111.778C80.4494 109.702 76.6827 106.889 73.5059 103.473C67.3151 96.5991 63.8574 87.6904 63.7882 78.4347L63.5977 48.1332C63.596 46.4018 64.1355 44.7134 65.1405 43.3045C66.1455 41.8957 67.5657 40.8371 69.2019 40.2772L99.2629 29.739C101.078 29.1078 103.052 29.1078 104.867 29.739L135.051 39.9181C136.687 40.4566 138.113 41.4938 139.13 42.8845C140.147 44.2751 140.704 45.9495 140.723 47.673L140.925 78.0419C140.936 87.277 137.576 96.1979 131.476 103.125C128.347 106.583 124.613 109.44 120.458 111.553L104.239 120.273C103.74 120.543 103.182 120.686 102.614 120.689" stroke="url(#paint13_linear_6995_4467)" stroke-width="0.2" stroke-miterlimit="10"/>
<path d="M102.625 119.277C102.072 119.281 101.526 119.15 101.034 118.896L85.1738 110.636C81.1251 108.631 77.4751 105.904 74.4025 102.589C68.3991 95.9297 65.045 87.2961 64.9762 78.3253L64.7969 48.9215C64.7968 47.2513 65.3173 45.6226 66.2857 44.2627C67.2541 42.9027 68.6222 41.8792 70.1993 41.3349L99.3412 31.111C101.098 30.4995 103.009 30.4995 104.766 31.111L134.009 40.9758C135.594 41.4957 136.977 42.4992 137.964 43.8456C138.951 45.192 139.492 46.8138 139.512 48.4839L139.703 77.91C139.748 86.8695 136.509 95.5343 130.602 102.264C127.573 105.616 123.956 108.385 119.931 110.434L104.239 118.884C103.759 119.15 103.219 119.289 102.67 119.289" stroke="url(#paint14_linear_6995_4467)" stroke-width="0.2" stroke-miterlimit="10"/>
<path d="M102.614 117.862C102.08 117.862 101.553 117.736 101.078 117.492L85.7224 109.501C81.7973 107.537 78.2615 104.875 75.2874 101.645C69.4762 95.2026 66.2296 86.848 66.1637 78.1671L65.9844 49.706C65.9971 48.096 66.5085 46.5296 67.448 45.223C68.3876 43.9164 69.709 42.9339 71.2299 42.4112L99.4303 32.5239C101.129 31.9347 102.977 31.9347 104.676 32.5239L132.988 42.0745C134.523 42.5783 135.862 43.5505 136.817 44.8548C137.771 46.159 138.294 47.7299 138.312 49.3469L138.492 77.8304C138.531 86.5005 135.397 94.8847 129.682 101.398C126.741 104.618 123.244 107.279 119.359 109.254L104.138 117.424C103.67 117.68 103.146 117.815 102.614 117.817" stroke="url(#paint15_linear_6995_4467)" stroke-width="0.2" stroke-miterlimit="10"/>
<path d="M102.602 116.482C102.084 116.482 101.573 116.359 101.111 116.123L86.2603 108.39C82.4707 106.512 79.0529 103.96 76.1727 100.86C70.5612 94.6251 67.4234 86.549 67.3517 78.1562L67.1836 50.6267C67.1872 49.0639 67.677 47.541 68.585 46.2699C69.4929 44.9987 70.7739 44.0424 72.2498 43.5339L99.5199 33.9721C101.164 33.3999 102.953 33.3999 104.597 33.9721L131.968 43.2197C133.452 43.7063 134.747 44.6451 135.671 45.9048C136.596 47.1645 137.104 48.682 137.124 50.2451L137.292 77.7971C137.334 86.1827 134.303 94.2925 128.774 100.591C125.936 103.727 122.552 106.32 118.787 108.245L104.071 116.101C103.62 116.347 103.116 116.478 102.602 116.482" stroke="url(#paint16_linear_6995_4467)" stroke-width="0.2" stroke-miterlimit="10"/>
<path d="M102.584 115.033C102.107 115.028 101.638 114.908 101.216 114.685L86.8694 107.222C83.2094 105.404 79.9093 102.936 77.1293 99.9385C71.6994 93.9225 68.6676 86.1178 68.6109 78.0092L68.3867 51.3887C68.3882 49.8789 68.8597 48.407 69.7355 47.178C70.6114 45.949 71.8482 45.0239 73.2736 44.5316L99.6134 35.2952C101.204 34.7454 102.932 34.7454 104.523 35.2952L130.963 44.2734C132.391 44.742 133.638 45.6422 134.534 46.8502C135.429 48.0582 135.928 49.5145 135.962 51.0183L136.13 77.6164C136.164 85.7229 133.229 93.5607 127.881 99.6467C125.14 102.678 121.869 105.185 118.231 107.043L104.007 114.674C103.572 114.918 103.082 115.045 102.584 115.044" stroke="url(#paint17_linear_6995_4467)" stroke-width="0.2" stroke-miterlimit="10"/>
<path d="M102.568 113.619C102.088 113.619 101.615 113.504 101.189 113.282L87.3469 106.077C83.8175 104.328 80.6349 101.951 77.9542 99.0626C72.7213 93.2514 69.7983 85.7207 69.7385 77.8964L69.5703 52.2523C69.5754 50.7953 70.0321 49.3757 70.8773 48.1897C71.7226 47.0036 72.9147 46.1095 74.2891 45.6308L99.7098 36.7199C101.238 36.1871 102.901 36.1871 104.429 36.7199L129.939 45.3278C131.322 45.7832 132.529 46.6595 133.391 47.8344C134.253 49.0093 134.727 50.4243 134.747 51.8819L134.904 77.5485C134.944 85.3529 132.129 92.9018 126.991 98.7708C124.342 101.686 121.191 104.1 117.688 105.897L103.969 113.259C103.545 113.489 103.072 113.613 102.59 113.619" stroke="url(#paint18_linear_6995_4467)" stroke-width="0.2" stroke-miterlimit="10"/>
<path d="M102.558 112.206C102.089 112.21 101.627 112.098 101.213 111.88L87.8746 104.945C84.4762 103.263 81.4084 100.982 78.8182 98.211C73.7862 92.6013 70.9863 85.3369 70.9499 77.7967L70.793 53.1066C70.7924 51.7015 71.2309 50.3314 72.0469 49.1883C72.863 48.0452 74.0157 47.1863 75.3436 46.732L99.8228 38.1466C101.297 37.636 102.899 37.636 104.373 38.1466L128.954 46.4402C130.283 46.8794 131.443 47.7231 132.271 48.8538C133.098 49.9844 133.553 51.3456 133.571 52.7474L133.728 77.4376C133.768 84.9644 131.048 92.2441 126.084 97.8968C123.536 100.712 120.498 103.039 117.117 104.765L103.903 111.858C103.496 112.079 103.043 112.198 102.58 112.206" stroke="url(#paint19_linear_6995_4467)" stroke-width="0.2" stroke-miterlimit="10"/>
<path d="M102.551 110.79C102.107 110.786 101.669 110.679 101.273 110.476L88.4509 103.743C85.1766 102.121 82.2252 99.9156 79.742 97.2333C74.8861 91.8738 72.1589 84.9191 72.0754 77.6832L71.9297 53.9133C71.9294 52.5631 72.3505 51.2466 73.1343 50.1479C73.9181 49.0492 75.0253 48.2232 76.301 47.7857L99.8387 39.5257C101.259 39.0357 102.801 39.0357 104.221 39.5257L127.86 47.5051C129.147 47.9205 130.272 48.7297 131.077 49.8188C131.881 50.908 132.324 52.2222 132.343 53.5766L132.5 77.3577C132.537 84.6011 129.916 91.6059 125.136 97.0425C122.688 99.7517 119.767 101.992 116.517 103.653L103.806 110.487C103.412 110.696 102.974 110.808 102.529 110.813" stroke="url(#paint20_linear_6995_4467)" stroke-width="0.2" stroke-miterlimit="10"/>
<path d="M102.539 109.367C102.111 109.371 101.688 109.271 101.306 109.076L88.9768 102.667C85.835 101.107 83.002 98.9891 80.6153 96.4163C75.9563 91.2473 73.3522 84.547 73.2962 77.5844L73.1953 54.7572C73.2019 53.4606 73.6096 52.1979 74.3623 51.1428C75.115 50.0877 76.1757 49.292 77.3985 48.8652L100.017 40.9419C101.381 40.4647 102.867 40.4647 104.231 40.9419L126.94 48.5959C128.17 49.0024 129.242 49.7832 130.008 50.8294C130.773 51.8756 131.194 53.1349 131.21 54.4318L131.356 77.2814C131.388 84.2389 128.872 90.9668 124.283 96.1918C121.932 98.7938 119.125 100.943 116 102.533L103.794 109.098C103.418 109.298 102.999 109.402 102.573 109.401" stroke="url(#paint21_linear_6995_4467)" stroke-width="0.2" stroke-miterlimit="10"/>
<path d="M102.528 107.952C102.138 107.945 101.755 107.849 101.407 107.671L89.5935 101.521C86.5781 100.027 83.8589 97.9961 81.5683 95.5284C77.1039 90.571 74.6113 84.1458 74.563 77.4709L74.3164 55.5752C74.326 54.3367 74.7194 53.1317 75.4421 52.1266C76.1649 51.1215 77.1814 50.3658 78.3514 49.9638L100.096 42.3211C101.403 41.8721 102.823 41.8721 104.131 42.3211L125.875 49.6495C127.06 50.0372 128.093 50.7872 128.829 51.794C129.565 52.8007 129.966 54.0134 129.977 55.2609L130.112 77.1791C130.154 83.8399 127.762 90.2864 123.387 95.3039C121.128 97.7974 118.436 99.8586 115.44 101.387L103.739 107.683C103.375 107.872 102.972 107.972 102.562 107.974" stroke="url(#paint22_linear_6995_4467)" stroke-width="0.2" stroke-miterlimit="10"/>
<path d="M102.515 106.538C102.125 106.537 101.742 106.445 101.394 106.269L90.0959 100.388C87.2096 98.9601 84.6077 97.0167 82.4182 94.6533C78.1354 89.9131 75.742 83.7621 75.6931 77.3702L75.5586 56.4172C75.5575 55.2256 75.9286 54.0633 76.62 53.0933C77.3114 52.1234 78.2884 51.3942 79.4143 51.0079L100.172 43.7243C101.425 43.2924 102.786 43.2924 104.039 43.7243L124.876 50.7609C126.005 51.1327 126.99 51.8485 127.694 52.8083C128.397 53.7681 128.783 54.9239 128.799 56.1142L128.933 77.0784C128.962 83.4621 126.654 89.635 122.443 94.4289C120.288 96.8195 117.712 98.7938 114.844 100.254L103.636 106.28C103.29 106.462 102.906 106.558 102.515 106.561" stroke="url(#paint23_linear_6995_4467)" stroke-width="0.2" stroke-miterlimit="10"/>
<path d="M102.503 105.124C102.113 105.137 101.727 105.048 101.382 104.866L90.5773 99.2544C87.8336 97.8821 85.3613 96.0226 83.2806 93.7665C79.1934 89.2373 76.9116 83.3618 76.8694 77.2577L76.7461 57.2475C76.7418 56.1099 77.0944 54.9996 77.754 54.0734C78.4136 53.1471 79.347 52.4516 80.4225 52.085L100.25 45.1268C101.444 44.7103 102.744 44.7103 103.938 45.1268L123.844 51.8605C124.922 52.2151 125.864 52.8975 126.537 53.8127C127.21 54.728 127.581 55.8305 127.599 56.9669L127.722 76.9996C127.747 83.0974 125.542 88.9934 121.524 93.5757C119.464 95.8728 117.002 97.7744 114.261 99.1871L103.557 104.944C103.23 105.121 102.864 105.214 102.492 105.214" stroke="url(#paint24_linear_6995_4467)" stroke-width="0.2" stroke-miterlimit="10"/>
<path d="M102.492 103.71C102.133 103.711 101.78 103.626 101.461 103.463L91.1264 98.1095C88.5148 96.8131 86.1602 95.0525 84.1772 92.9133C80.2893 88.601 78.1159 83.0107 78.0686 77.2014L77.9453 58.1226C77.948 57.0386 78.2871 55.9823 78.9156 55.0996C79.5441 54.217 80.431 53.5517 81.4536 53.1958L100.362 46.5744C101.498 46.1757 102.735 46.1757 103.87 46.5744L122.846 52.9714C123.874 53.3124 124.77 53.9661 125.409 54.8412C126.048 55.7163 126.398 56.7693 126.411 57.8533L126.534 76.932C126.558 82.7414 124.457 88.3586 120.627 92.7225C118.665 94.8967 116.321 96.6921 113.711 98.0197L103.512 103.508C103.197 103.673 102.847 103.762 102.492 103.766" stroke="url(#paint25_linear_6995_4467)" stroke-width="0.2" stroke-miterlimit="10"/>
<path d="M102.484 102.295C102.145 102.296 101.811 102.215 101.509 102.06L91.7131 96.9645C89.2211 95.7245 86.9732 94.0441 85.0777 92.0041C81.3721 87.9004 79.3018 82.5763 79.2605 77.0441L79.1484 58.908C79.1521 57.8744 79.4781 56.8678 80.081 56.0287C80.6838 55.1897 81.5334 54.5602 82.511 54.2281L100.444 47.9209C101.533 47.5394 102.719 47.5394 103.807 47.9209L121.841 54.0037C122.812 54.3332 123.656 54.9559 124.258 55.786C124.861 56.6161 125.191 57.6128 125.204 58.6387L125.316 76.7859C125.351 82.3103 123.357 87.6547 119.712 91.8021C117.84 93.868 115.611 95.5789 113.132 96.8523L103.46 102.048C103.163 102.207 102.832 102.292 102.496 102.295" stroke="url(#paint26_linear_6995_4467)" stroke-width="0.2" stroke-miterlimit="10"/>
<path d="M102.469 100.88C102.145 100.879 101.827 100.802 101.538 100.655L92.2466 95.8295C89.8792 94.6531 87.7448 93.056 85.9475 91.1159C82.4361 87.2232 80.4738 82.1755 80.4329 76.9303L80.332 59.7369C80.331 58.7602 80.6352 57.8075 81.202 57.0126C81.7688 56.2176 82.5698 55.6201 83.4928 55.3039L100.53 49.3222C101.557 48.9629 102.675 48.9629 103.702 49.3222L120.806 55.0907C121.732 55.3949 122.54 55.9815 123.117 56.7683C123.694 57.5551 124.01 58.5028 124.023 59.4788L124.135 76.6946C124.158 81.9338 122.264 87.0001 118.811 90.9363C117.036 92.8953 114.92 94.5153 112.567 95.7172L103.377 100.655C103.095 100.809 102.779 100.89 102.457 100.891" stroke="url(#paint27_linear_6995_4467)" stroke-width="0.2" stroke-miterlimit="10"/>
<path d="M102.461 99.4669C102.153 99.4685 101.849 99.3954 101.576 99.2537L92.8108 94.686C90.5692 93.5618 88.549 92.041 86.8479 90.1969C83.5166 86.5026 81.6646 81.7069 81.6472 76.7295L81.5352 60.4677C81.5426 59.5449 81.834 58.6468 82.3695 57.8958C82.905 57.1447 83.6586 56.5771 84.5278 56.2703L100.634 50.6589C101.607 50.322 102.665 50.322 103.638 50.6589L119.801 56.1244C120.693 56.4154 121.47 56.9835 122.018 57.7463C122.566 58.5091 122.857 59.4269 122.849 60.3667L122.95 76.6285C122.979 81.5837 121.188 86.3767 117.918 90.0959C116.24 91.9368 114.242 93.4577 112.022 94.585L103.324 99.2537C103.059 99.3983 102.763 99.4754 102.461 99.4781" stroke="url(#paint28_linear_6995_4467)" stroke-width="0.2" stroke-miterlimit="10"/>
<path d="M102.44 98.0523C102.155 98.0519 101.874 97.9826 101.622 97.8503L93.3722 93.552C91.2652 92.505 89.3662 91.0827 87.768 89.3546C84.6414 85.8863 82.8946 81.3898 82.8587 76.7178L82.7579 61.3986C82.7541 60.5342 83.0184 59.6899 83.5143 58.9823C84.0102 58.2747 84.7132 57.7387 85.5263 57.4482L100.703 52.1286C101.617 51.8087 102.613 51.8087 103.527 52.1286L118.759 57.2686C119.585 57.5417 120.305 58.0657 120.819 58.7677C121.334 59.4697 121.617 60.3148 121.629 61.1854L121.718 76.5157C121.747 81.1826 120.059 85.6967 116.977 89.1975C115.39 90.9552 113.489 92.4015 111.373 93.4622L103.191 97.8615C102.936 97.9986 102.651 98.0718 102.361 98.0748" stroke="url(#paint29_linear_6995_4467)" stroke-width="0.2" stroke-miterlimit="10"/>
<path d="M102.424 96.64C102.155 96.6369 101.89 96.5716 101.65 96.4492L93.894 92.409C91.9135 91.4275 90.1283 90.0926 88.626 88.4698C85.6864 85.2171 84.0465 80.994 84.0194 76.6073L83.9297 62.2309C83.9302 61.4146 84.1854 60.6188 84.6596 59.9548C85.1339 59.2908 85.8035 58.7917 86.5749 58.5274L100.821 53.522C101.677 53.2244 102.609 53.2244 103.466 53.522L117.768 58.3478C118.544 58.6043 119.222 59.0966 119.706 59.7563C120.19 60.416 120.457 61.2104 120.469 62.0289L120.559 76.4165C120.566 80.8006 118.972 85.0359 116.075 88.3239C114.59 89.9613 112.821 91.315 110.852 92.3192L103.163 96.4492C102.925 96.5774 102.66 96.6467 102.39 96.6513" stroke="url(#paint30_linear_6995_4467)" stroke-width="0.2" stroke-miterlimit="10"/>
<path d="M102.414 95.2253C102.164 95.2219 101.919 95.1604 101.696 95.0458L94.4895 91.2749C92.6365 90.357 90.9655 89.1097 89.5578 87.5938C86.816 84.5499 85.2846 80.6046 85.2537 76.5057L85.1641 63.0383C85.1682 62.2748 85.4086 61.5313 85.8522 60.9103C86.2958 60.2892 86.9208 59.8211 87.6411 59.5705L100.957 54.9018C101.76 54.6265 102.631 54.6265 103.434 54.9018L116.805 59.3909C117.529 59.6297 118.161 60.0891 118.611 60.7049C119.061 61.3207 119.308 62.062 119.316 62.8251L119.406 76.2925C119.418 80.3863 117.939 84.3442 115.247 87.4255C113.865 88.9603 112.212 90.2272 110.372 91.1627L103.176 95.0233C102.956 95.1439 102.71 95.2093 102.459 95.2141" stroke="url(#paint31_linear_6995_4467)" stroke-width="0.2" stroke-miterlimit="10"/>
<path d="M102.402 93.8001C102.168 93.8042 101.937 93.7502 101.729 93.643L95.0041 90.1302C93.2908 89.2909 91.7419 88.1506 90.431 86.7634C87.8731 83.936 86.4446 80.2645 86.4184 76.4496L86.34 63.9474C86.3342 63.2364 86.5534 62.5418 86.9662 61.9632C87.3789 61.3845 87.9641 60.9516 88.6377 60.7265L101.034 56.3833C101.777 56.1196 102.589 56.1196 103.332 56.3833L115.784 60.5132C116.458 60.7384 117.043 61.1713 117.456 61.7499C117.869 62.3285 118.088 63.0231 118.082 63.7342L118.161 76.2476C118.182 80.0547 116.806 83.737 114.294 86.595C113.023 88.0178 111.504 89.1967 109.81 90.0741L103.085 93.6654C102.878 93.7761 102.647 93.834 102.413 93.8337" stroke="url(#paint32_linear_6995_4467)" stroke-width="0.2" stroke-miterlimit="10"/>
<path d="M102.389 92.3857C102.175 92.3883 101.963 92.3382 101.773 92.2398L95.5296 88.9965C93.9395 88.2041 92.5044 87.1321 91.2929 85.8316C88.9345 83.212 87.6149 79.8189 87.5829 76.2922L87.5156 64.7215C87.5176 64.0656 87.7238 63.4267 88.1055 62.8936C88.4872 62.3605 89.0254 61.9599 89.6452 61.7475L101.1 57.7297C101.79 57.4885 102.54 57.4885 103.23 57.7297L114.73 61.6016C115.353 61.8066 115.898 62.2009 116.287 62.7299C116.677 63.2588 116.893 63.896 116.904 64.5532L116.983 76.1239C116.995 79.6464 115.719 83.0516 113.396 85.6969C112.204 87.0125 110.784 88.1001 109.204 88.9067L103.017 92.2735C102.827 92.3753 102.616 92.4293 102.4 92.4306" stroke="url(#paint33_linear_6995_4467)" stroke-width="0.2" stroke-miterlimit="10"/>
<path d="M102.337 90.9715C102.138 90.9721 101.942 90.926 101.765 90.8368L96.0374 87.8516C94.5716 87.128 93.2499 86.143 92.1368 84.9449C89.979 82.5358 88.7821 79.4159 88.7743 76.1799L88.7071 65.5631C88.7046 64.9582 88.8914 64.3678 89.2411 63.8747C89.5909 63.3815 90.0862 63.0104 90.6573 62.8135L101.182 59.1212C101.818 58.9023 102.508 58.9023 103.144 59.1212L113.702 62.6901C114.275 62.879 114.775 63.242 115.133 63.7288C115.49 64.2156 115.688 64.8018 115.697 65.406L115.787 76.0789C115.8 79.3167 114.628 82.4471 112.491 84.8775C111.399 86.0863 110.096 87.0864 108.647 87.8291L102.964 90.8817C102.79 90.9806 102.593 91.031 102.393 91.0276" stroke="url(#paint34_linear_6995_4467)" stroke-width="0.2" stroke-miterlimit="10"/>
<path d="M102.334 89.5466C102.152 89.5443 101.972 89.5022 101.807 89.4232L96.5841 86.6961C95.2498 86.0406 94.0488 85.1425 93.0422 84.0475C91.0901 81.853 90.0094 79.018 90.0047 76.0793L89.9375 66.394C89.941 65.8439 90.114 65.3082 90.433 64.8603C90.752 64.4123 91.2013 64.0739 91.7196 63.8913L101.314 60.5245C101.896 60.3278 102.526 60.3278 103.107 60.5245L112.735 63.7791C113.256 63.9513 113.711 64.2814 114.036 64.7238C114.362 65.1661 114.542 65.6988 114.551 66.2481V75.9446C114.564 78.8812 113.508 81.7219 111.581 83.9352C110.579 85.0344 109.387 85.9431 108.062 86.6175L102.883 89.4007C102.717 89.4994 102.527 89.5499 102.334 89.5466" stroke="url(#paint35_linear_6995_4467)" stroke-width="0.2" stroke-miterlimit="10"/>
<path d="M102.339 88.1427C102.175 88.1454 102.013 88.1069 101.868 88.0304L97.1492 85.5726C95.9442 84.978 94.8578 84.1678 93.9436 83.1822C92.1511 81.2052 91.1495 78.636 91.1303 75.9659L91.0742 67.2234C91.0744 66.7271 91.2303 66.2434 91.5199 65.8406C91.8095 65.4379 92.2182 65.1364 92.6882 64.9788L101.352 61.9374C101.872 61.7578 102.436 61.7578 102.955 61.9374L111.653 64.8778C112.127 65.0315 112.541 65.3313 112.835 65.7344C113.128 66.1375 113.288 66.6233 113.289 67.1223V75.8761C113.304 78.5388 112.343 81.1144 110.588 83.1148C109.686 84.1085 108.611 84.9299 107.416 85.539L102.742 88.0529C102.598 88.1315 102.436 88.1738 102.271 88.1763" stroke="url(#paint36_linear_6995_4467)" stroke-width="0.2" stroke-miterlimit="10"/>
<path d="M102.334 86.7304C102.186 86.7303 102.04 86.6957 101.908 86.6294L97.6936 84.3848C96.6182 83.8557 95.6494 83.1329 94.8354 82.2525C93.2431 80.4838 92.3538 78.1918 92.3359 75.8106V68.0108C92.3367 67.5667 92.4751 67.1339 92.7321 66.772C92.9891 66.4101 93.352 66.1371 93.7706 65.9906L101.504 63.286C101.969 63.1234 102.475 63.1234 102.939 63.286L110.707 65.9009C111.127 66.0408 111.493 66.3085 111.754 66.6665C112.015 67.0245 112.158 67.4552 112.164 67.8985V75.7545C112.171 78.1328 111.31 80.4317 109.743 82.2188C108.939 83.1127 107.978 83.8507 106.907 84.396L102.737 86.6406C102.612 86.7154 102.469 86.7542 102.323 86.7528" stroke="url(#paint37_linear_6995_4467)" stroke-width="0.2" stroke-miterlimit="10"/>
<path d="M102.337 85.3157C102.209 85.3153 102.082 85.2846 101.967 85.2259L98.2573 83.2956C97.3151 82.8264 96.4647 82.1916 95.7466 81.4214C94.3404 79.8876 93.5431 77.8917 93.5049 75.81V68.9416C93.4917 68.5411 93.6062 68.1467 93.8319 67.8158C94.0577 67.4848 94.3829 67.2345 94.7603 67.1011L101.564 64.7106C101.974 64.5704 102.42 64.5704 102.83 64.7106L109.656 66.9552C110.029 67.0757 110.354 67.3109 110.586 67.6272C110.817 67.9436 110.943 68.325 110.945 68.7172V75.5855C110.953 77.6789 110.195 79.7027 108.816 81.2755C108.108 82.0565 107.265 82.7029 106.327 83.1834L102.651 85.1474C102.543 85.2131 102.419 85.248 102.292 85.2484" stroke="url(#paint38_linear_6995_4467)" stroke-width="0.2" stroke-miterlimit="10"/>
<path d="M102.337 83.9337C102.224 83.9302 102.114 83.9035 102.012 83.8552L98.8176 82.183C97.9961 81.7834 97.2552 81.2355 96.632 80.5669C95.4222 79.2231 94.7445 77.4829 94.7266 75.6738V69.7481C94.7292 69.408 94.8389 69.0773 95.0402 68.8033C95.2414 68.5292 95.5239 68.3257 95.8474 68.2218L101.721 66.1568C102.083 66.0285 102.479 66.0285 102.841 66.1568L108.737 68.1433C109.059 68.2466 109.34 68.4484 109.541 68.7202C109.742 68.992 109.853 69.3201 109.858 69.6583V75.584C109.834 77.3907 109.153 79.1266 107.941 80.4659C107.329 81.1416 106.6 81.7005 105.789 82.1156L102.617 83.8103C102.535 83.8725 102.439 83.9147 102.337 83.9337" stroke="url(#paint39_linear_6995_4467)" stroke-width="0.2" stroke-miterlimit="10"/>
<path d="M102.335 82.4869C102.244 82.4875 102.155 82.4642 102.077 82.4196L99.3756 81.0167C98.6871 80.6777 98.0676 80.2134 97.5486 79.6475C96.5288 78.5227 95.9617 77.0592 95.957 75.54V70.5458C95.9576 70.2618 96.0464 69.985 96.2111 69.7538C96.3757 69.5226 96.6082 69.3483 96.8761 69.2552L101.819 67.5269C102.116 67.4207 102.441 67.4207 102.738 67.5269L107.692 69.1991C107.963 69.2842 108.199 69.4527 108.368 69.6804C108.537 69.9081 108.63 70.1835 108.634 70.4673V75.4614C108.639 76.9809 108.088 78.4497 107.087 79.5914C106.573 80.1636 105.957 80.6355 105.271 80.983L102.604 82.4196C102.521 82.4652 102.429 82.4884 102.335 82.4869" stroke="url(#paint40_linear_6995_4467)" stroke-width="0.2" stroke-miterlimit="10"/>
<path d="M102.336 81.0741C102.262 81.0713 102.189 81.0522 102.123 81.018L99.8812 79.8957C99.3223 79.6176 98.8204 79.2369 98.4017 78.7734C97.5671 77.851 97.1038 76.6513 97.1016 75.4066V71.3552C97.1039 71.1264 97.1761 70.9039 97.3083 70.7174C97.4405 70.5308 97.6265 70.3892 97.8413 70.3114L101.854 68.9086C102.097 68.8221 102.362 68.8221 102.605 68.9086L106.629 70.2666C106.848 70.3406 107.039 70.4806 107.175 70.6675C107.311 70.8543 107.387 71.0788 107.391 71.3103V75.3617C107.399 76.6001 106.952 77.7984 106.136 78.7285C105.72 79.1911 105.222 79.5718 104.667 79.8508L102.504 80.9731C102.433 81.0036 102.357 81.0226 102.28 81.0292" stroke="url(#paint41_linear_6995_4467)" stroke-width="0.2" stroke-miterlimit="10"/>
<path d="M102.335 79.6473C102.28 79.6579 102.223 79.6579 102.167 79.6473L100.497 78.7719C100.075 78.5589 99.6946 78.2698 99.3765 77.919C98.7411 77.2134 98.3862 76.299 98.3789 75.349V72.2403C98.3807 72.0647 98.4365 71.8939 98.5389 71.7513C98.6412 71.6087 98.7849 71.5012 98.9505 71.4435L102.033 70.3212C102.219 70.2653 102.418 70.2653 102.604 70.3212L105.698 71.3649C105.866 71.4208 106.012 71.5275 106.116 71.6702C106.221 71.813 106.278 71.9848 106.281 72.1617V75.2704C106.29 76.2207 105.946 77.1404 105.317 77.8517C104.998 78.2048 104.619 78.4975 104.196 78.7158L102.526 79.6137C102.471 79.6252 102.413 79.6252 102.358 79.6137" stroke="url(#paint42_linear_6995_4467)" stroke-width="0.2" stroke-miterlimit="10"/>
</g>
<foreignObject x="59.7862" y="35.5088" width="87.5995" height="74.9745"><div xmlns="http://www.w3.org/1999/xhtml" style="backdrop-filter:blur(10.26px);clip-path:url(#bgblur_2_6995_4467_clip_path);height:100%;width:100%"></div></foreignObject><path data-figma-bg-blur-radius="20.5263" d="M118.678 57.4678C120.526 55.6406 123.534 55.6227 125.395 57.4248C127.261 59.2328 127.28 62.1725 125.439 63.9863V63.9873L100.666 88.5254H100.665C99.741 89.4418 98.5321 89.9001 97.3164 89.9062C96.1008 89.9124 94.8858 89.473 93.9492 88.5693L81.7695 76.8037C79.909 74.9958 79.8903 72.0613 81.7314 70.2412C83.5734 68.4143 86.5808 68.3954 88.4482 70.1973L97.2119 78.6592L97.2471 78.6924L97.2822 78.6582L118.678 57.4678Z" fill="url(#paint43_radial_6995_4467)" fill-opacity="0.53" stroke="url(#paint44_linear_6995_4467)" stroke-width="0.1"/>
<foreignObject x="12.6542" y="79.3632" width="91.1565" height="91.467"><div xmlns="http://www.w3.org/1999/xhtml" style="backdrop-filter:blur(5.47px);clip-path:url(#bgblur_3_6995_4467_clip_path);height:100%;width:100%"></div></foreignObject><path data-figma-bg-blur-radius="10.9474" d="M58.2324 90.5107C77.2502 90.5108 92.665 105.999 92.665 125.097C92.6649 144.201 77.2501 159.682 58.2324 159.682C39.2147 159.682 23.7999 144.201 23.7998 125.097C23.7998 105.999 39.2146 90.5107 58.2324 90.5107Z" fill="url(#paint45_linear_6995_4467)" fill-opacity="0.5" stroke="url(#paint46_linear_6995_4467)" stroke-width="0.4" stroke-linecap="round" stroke-linejoin="round"/>
<foreignObject x="31.5491" y="107.707" width="49.8394" height="33.0737"><div xmlns="http://www.w3.org/1999/xhtml" style="backdrop-filter:blur(4.79px);clip-path:url(#bgblur_4_6995_4467_clip_path);height:100%;width:100%"></div></foreignObject><g data-figma-bg-blur-radius="9.57593">
<mask id="path-46-inside-1_6995_4467" fill="white">
<path fill-rule="evenodd" clip-rule="evenodd" d="M69.8165 131.205C70.9193 131.205 71.8143 130.306 71.8143 129.198V124.243C71.8143 123.135 70.9193 122.236 69.8165 122.236H54.6543C53.7912 119.381 51.1754 117.283 48.0535 117.283C44.2336 117.283 41.125 120.406 41.125 124.243C41.125 128.082 44.2336 131.205 48.0535 131.205C51.1754 131.205 53.7912 129.107 54.6543 126.249H60.2802V129.198C60.2802 130.306 61.1752 131.205 62.278 131.205C63.3808 131.205 64.2759 130.306 64.2759 129.198V126.249H67.8187V129.198C67.8187 130.306 68.7137 131.205 69.8165 131.205ZM45.12 124.244C45.12 122.617 46.4386 121.295 48.0555 121.295C49.6724 121.295 50.991 122.617 50.991 124.244C50.991 125.868 49.6724 127.19 48.0555 127.19C46.4386 127.19 45.12 125.868 45.12 124.244Z"/>
</mask>
<path fill-rule="evenodd" clip-rule="evenodd" d="M69.8165 131.205C70.9193 131.205 71.8143 130.306 71.8143 129.198V124.243C71.8143 123.135 70.9193 122.236 69.8165 122.236H54.6543C53.7912 119.381 51.1754 117.283 48.0535 117.283C44.2336 117.283 41.125 120.406 41.125 124.243C41.125 128.082 44.2336 131.205 48.0535 131.205C51.1754 131.205 53.7912 129.107 54.6543 126.249H60.2802V129.198C60.2802 130.306 61.1752 131.205 62.278 131.205C63.3808 131.205 64.2759 130.306 64.2759 129.198V126.249H67.8187V129.198C67.8187 130.306 68.7137 131.205 69.8165 131.205ZM45.12 124.244C45.12 122.617 46.4386 121.295 48.0555 121.295C49.6724 121.295 50.991 122.617 50.991 124.244C50.991 125.868 49.6724 127.19 48.0555 127.19C46.4386 127.19 45.12 125.868 45.12 124.244Z" fill="#0658D0" fill-opacity="0.03"/>
<path fill-rule="evenodd" clip-rule="evenodd" d="M69.8165 131.205C70.9193 131.205 71.8143 130.306 71.8143 129.198V124.243C71.8143 123.135 70.9193 122.236 69.8165 122.236H54.6543C53.7912 119.381 51.1754 117.283 48.0535 117.283C44.2336 117.283 41.125 120.406 41.125 124.243C41.125 128.082 44.2336 131.205 48.0535 131.205C51.1754 131.205 53.7912 129.107 54.6543 126.249H60.2802V129.198C60.2802 130.306 61.1752 131.205 62.278 131.205C63.3808 131.205 64.2759 130.306 64.2759 129.198V126.249H67.8187V129.198C67.8187 130.306 68.7137 131.205 69.8165 131.205ZM45.12 124.244C45.12 122.617 46.4386 121.295 48.0555 121.295C49.6724 121.295 50.991 122.617 50.991 124.244C50.991 125.868 49.6724 127.19 48.0555 127.19C46.4386 127.19 45.12 125.868 45.12 124.244Z" fill="url(#paint47_radial_6995_4467)" fill-opacity="0.63"/>
<path d="M54.6543 122.236L54.5321 122.273L54.5595 122.364H54.6543V122.236ZM54.6543 126.249V126.122H54.5595L54.5321 126.213L54.6543 126.249ZM60.2802 126.249H60.4079V126.122H60.2802V126.249ZM64.2759 126.249V126.122H64.1482V126.249H64.2759ZM67.8187 126.249H67.9464V126.122H67.8187V126.249ZM71.8143 129.198H71.6867C71.6867 130.236 70.8483 131.077 69.8165 131.077V131.205V131.333C70.9904 131.333 71.942 130.376 71.942 129.198H71.8143ZM71.8143 124.243H71.6867V129.198H71.8143H71.942V124.243H71.8143ZM69.8165 122.236V122.364C70.8483 122.364 71.6867 123.205 71.6867 124.243H71.8143H71.942C71.942 123.065 70.9904 122.108 69.8165 122.108V122.236ZM54.6543 122.236V122.364H69.8165V122.236V122.108H54.6543V122.236ZM48.0535 117.283V117.411C51.1161 117.411 53.6844 119.469 54.5321 122.273L54.6543 122.236L54.7765 122.199C53.8981 119.293 51.2347 117.156 48.0535 117.156V117.283ZM41.125 124.243H41.2527C41.2527 120.476 44.3047 117.411 48.0535 117.411V117.283V117.156C44.1626 117.156 40.9973 120.336 40.9973 124.243H41.125ZM48.0535 131.205V131.077C44.3047 131.077 41.2527 128.012 41.2527 124.243H41.125H40.9973C40.9973 128.152 44.1625 131.333 48.0535 131.333V131.205ZM54.6543 126.249L54.5321 126.213C53.6844 129.019 51.1161 131.077 48.0535 131.077V131.205V131.333C51.2348 131.333 53.8981 129.195 54.7765 126.286L54.6543 126.249ZM60.2802 126.249V126.122H54.6543V126.249V126.377H60.2802V126.249ZM60.2802 129.198H60.4079V126.249H60.2802H60.1525V129.198H60.2802ZM62.278 131.205V131.077C61.2463 131.077 60.4079 130.236 60.4079 129.198H60.2802H60.1525C60.1525 130.376 61.1042 131.333 62.278 131.333V131.205ZM64.2759 129.198H64.1482C64.1482 130.236 63.3098 131.077 62.278 131.077V131.205V131.333C63.4519 131.333 64.4035 130.376 64.4035 129.198H64.2759ZM64.2759 126.249H64.1482V129.198H64.2759H64.4035V126.249H64.2759ZM67.8187 126.249V126.122H64.2759V126.249V126.377H67.8187V126.249ZM67.8187 129.198H67.9464V126.249H67.8187H67.691V129.198H67.8187ZM69.8165 131.205V131.077C68.7848 131.077 67.9464 130.236 67.9464 129.198H67.8187H67.691C67.691 130.376 68.6427 131.333 69.8165 131.333V131.205ZM48.0555 121.295V121.167C46.3676 121.167 44.9923 122.547 44.9923 124.244H45.12H45.2477C45.2477 122.687 46.5096 121.423 48.0555 121.423V121.295ZM50.991 124.244H51.1186C51.1186 122.547 49.7434 121.167 48.0555 121.167V121.295V121.423C49.6014 121.423 50.8633 122.687 50.8633 124.244H50.991ZM48.0555 127.19V127.317C49.7433 127.317 51.1186 125.938 51.1186 124.244H50.991H50.8633C50.8633 125.798 49.6015 127.062 48.0555 127.062V127.19ZM45.12 124.244H44.9923C44.9923 125.938 46.3677 127.317 48.0555 127.317V127.19V127.062C46.5095 127.062 45.2477 125.798 45.2477 124.244H45.12Z" fill="url(#paint48_linear_6995_4467)" fill-opacity="0.5" mask="url(#path-46-inside-1_6995_4467)"/>
</g>
<defs>
<clipPath id="bgblur_0_6995_4467_clip_path" transform="translate(0 0)"><path d="M102.545 138.643C101.758 138.643 100.971 138.462 100.261 138.092L77.3806 126.195C70.8881 122.816 65.8093 119.023 61.8434 114.605C53.1633 104.942 48.3339 92.5384 48.2572 79.6714L47.9885 37.3217C47.9565 32.434 51.0972 28.0469 55.7923 26.3947L97.8047 11.6815C100.299 10.7866 103.082 10.7741 105.621 11.6377L147.794 25.8503C152.514 27.4336 155.706 31.7894 155.732 36.6708L156 79.0518C156.084 91.9001 151.42 104.354 142.875 114.123C138.954 118.604 133.92 122.453 127.491 125.895L104.815 138.061C104.112 138.443 103.331 138.637 102.545 138.643Z"/>
</clipPath><clipPath id="bgblur_2_6995_4467_clip_path" transform="translate(-59.7862 -35.5088)"><path d="M118.678 57.4678C120.526 55.6406 123.534 55.6227 125.395 57.4248C127.261 59.2328 127.28 62.1725 125.439 63.9863V63.9873L100.666 88.5254H100.665C99.741 89.4418 98.5321 89.9001 97.3164 89.9062C96.1008 89.9124 94.8858 89.473 93.9492 88.5693L81.7695 76.8037C79.909 74.9958 79.8903 72.0613 81.7314 70.2412C83.5734 68.4143 86.5808 68.3954 88.4482 70.1973L97.2119 78.6592L97.2471 78.6924L97.2822 78.6582L118.678 57.4678Z"/>
</clipPath><clipPath id="bgblur_3_6995_4467_clip_path" transform="translate(-12.6542 -79.3632)"><path d="M58.2324 90.5107C77.2502 90.5108 92.665 105.999 92.665 125.097C92.6649 144.201 77.2501 159.682 58.2324 159.682C39.2147 159.682 23.7999 144.201 23.7998 125.097C23.7998 105.999 39.2146 90.5107 58.2324 90.5107Z"/>
</clipPath><clipPath id="bgblur_4_6995_4467_clip_path" transform="translate(-31.5491 -107.707)"><path fill-rule="evenodd" clip-rule="evenodd" d="M69.8165 131.205C70.9193 131.205 71.8143 130.306 71.8143 129.198V124.243C71.8143 123.135 70.9193 122.236 69.8165 122.236H54.6543C53.7912 119.381 51.1754 117.283 48.0535 117.283C44.2336 117.283 41.125 120.406 41.125 124.243C41.125 128.082 44.2336 131.205 48.0535 131.205C51.1754 131.205 53.7912 129.107 54.6543 126.249H60.2802V129.198C60.2802 130.306 61.1752 131.205 62.278 131.205C63.3808 131.205 64.2759 130.306 64.2759 129.198V126.249H67.8187V129.198C67.8187 130.306 68.7137 131.205 69.8165 131.205ZM45.12 124.244C45.12 122.617 46.4386 121.295 48.0555 121.295C49.6724 121.295 50.991 122.617 50.991 124.244C50.991 125.868 49.6724 127.19 48.0555 127.19C46.4386 127.19 45.12 125.868 45.12 124.244Z"/>
</clipPath><radialGradient id="paint0_radial_6995_4467" cx="0" cy="0" r="1" gradientTransform="matrix(77.6345 79.7769 -71.3157 106.955 71.6162 38.9219)" gradientUnits="userSpaceOnUse">
<stop stop-color="#0658D0"/>
<stop offset="0.299176" stop-color="#0658D0" stop-opacity="0.725259"/>
<stop offset="1" stop-color="#0658D0" stop-opacity="0.13"/>
</radialGradient>
<linearGradient id="paint1_linear_6995_4467" x1="118.624" y1="134.372" x2="91.8264" y2="14.1228" gradientUnits="userSpaceOnUse">
<stop offset="0.04" stop-color="#C7C6FF"/>
<stop offset="1" stop-color="#E9E9FF"/>
</linearGradient>
<linearGradient id="paint2_linear_6995_4467" x1="118.252" y1="133.035" x2="92.0617" y2="15.5015" gradientUnits="userSpaceOnUse">
<stop offset="0.04" stop-color="#C7C6FF"/>
<stop offset="1" stop-color="#E9E9FF"/>
</linearGradient>
<linearGradient id="paint3_linear_6995_4467" x1="117.879" y1="131.69" x2="92.2838" y2="16.8719" gradientUnits="userSpaceOnUse">
<stop offset="0.04" stop-color="#9DBCE9"/>
<stop offset="1" stop-color="#E9E9FF"/>
</linearGradient>
<linearGradient id="paint4_linear_6995_4467" x1="117.512" y1="130.353" x2="92.5235" y2="18.2391" gradientUnits="userSpaceOnUse">
<stop offset="0.04" stop-color="#C7C6FF"/>
<stop offset="1" stop-color="#E9E9FF"/>
</linearGradient>
<linearGradient id="paint5_linear_6995_4467" x1="117.142" y1="129.017" x2="92.7603" y2="19.6084" gradientUnits="userSpaceOnUse">
<stop offset="0.04" stop-color="#94BAF2"/>
<stop offset="1" stop-color="#E9E9FF"/>
</linearGradient>
<linearGradient id="paint6_linear_6995_4467" x1="116.77" y1="127.682" x2="92.9947" y2="20.9771" gradientUnits="userSpaceOnUse">
<stop offset="0.04" stop-color="#C7C6FF"/>
<stop offset="1" stop-color="#E9E9FF"/>
</linearGradient>
<linearGradient id="paint7_linear_6995_4467" x1="116.398" y1="126.345" x2="93.2299" y2="22.3443" gradientUnits="userSpaceOnUse">
<stop offset="0.04" stop-color="#C7C6FF"/>
<stop offset="1" stop-color="#E9E9FF"/>
</linearGradient>
<linearGradient id="paint8_linear_6995_4467" x1="116.033" y1="124.999" x2="93.4599" y2="23.7141" gradientUnits="userSpaceOnUse">
<stop offset="0.04" stop-color="#C7C6FF"/>
<stop offset="1" stop-color="#E9E9FF"/>
</linearGradient>
<linearGradient id="paint9_linear_6995_4467" x1="115.677" y1="123.663" x2="93.6995" y2="25.094" gradientUnits="userSpaceOnUse">
<stop offset="0.04" stop-color="#C7C6FF"/>
<stop offset="1" stop-color="#E9E9FF"/>
</linearGradient>
<linearGradient id="paint10_linear_6995_4467" x1="115.305" y1="122.328" x2="93.9347" y2="26.4632" gradientUnits="userSpaceOnUse">
<stop offset="0.04" stop-color="#C7C6FF"/>
<stop offset="1" stop-color="#E9E9FF"/>
</linearGradient>
<linearGradient id="paint11_linear_6995_4467" x1="114.936" y1="120.992" x2="94.1725" y2="27.8313" gradientUnits="userSpaceOnUse">
<stop offset="0.04" stop-color="#C7C6FF"/>
<stop offset="1" stop-color="#E9E9FF"/>
</linearGradient>
<linearGradient id="paint12_linear_6995_4467" x1="114.562" y1="119.647" x2="94.4054" y2="29.2021" gradientUnits="userSpaceOnUse">
<stop offset="0.04" stop-color="#C7C6FF"/>
<stop offset="1" stop-color="#E9E9FF"/>
</linearGradient>
<linearGradient id="paint13_linear_6995_4467" x1="114.193" y1="118.309" x2="94.6309" y2="30.5689" gradientUnits="userSpaceOnUse">
<stop offset="0.04" stop-color="#C7C6FF"/>
<stop offset="1" stop-color="#E9E9FF"/>
</linearGradient>
<linearGradient id="paint14_linear_6995_4467" x1="113.823" y1="116.977" x2="94.8677" y2="31.9405" gradientUnits="userSpaceOnUse">
<stop offset="0.04" stop-color="#C7C6FF"/>
<stop offset="1" stop-color="#E9E9FF"/>
</linearGradient>
<linearGradient id="paint15_linear_6995_4467" x1="113.452" y1="115.64" x2="95.1039" y2="33.3083" gradientUnits="userSpaceOnUse">
<stop offset="0.04" stop-color="#C7C6FF"/>
<stop offset="1" stop-color="#E9E9FF"/>
</linearGradient>
<linearGradient id="paint16_linear_6995_4467" x1="113.082" y1="114.294" x2="95.3407" y2="34.6888" gradientUnits="userSpaceOnUse">
<stop offset="0.04" stop-color="#C7C6FF"/>
<stop offset="1" stop-color="#E9E9FF"/>
</linearGradient>
<linearGradient id="paint17_linear_6995_4467" x1="112.716" y1="112.957" x2="95.5814" y2="36.0564" gradientUnits="userSpaceOnUse">
<stop offset="0.04" stop-color="#C7C6FF"/>
<stop offset="1" stop-color="#E9E9FF"/>
</linearGradient>
<linearGradient id="paint18_linear_6995_4467" x1="112.342" y1="111.621" x2="95.8025" y2="37.4247" gradientUnits="userSpaceOnUse">
<stop offset="0.04" stop-color="#C7C6FF"/>
<stop offset="1" stop-color="#E9E9FF"/>
</linearGradient>
<linearGradient id="paint19_linear_6995_4467" x1="111.973" y1="110.287" x2="96.0403" y2="38.7949" gradientUnits="userSpaceOnUse">
<stop offset="0.04" stop-color="#C7C6FF"/>
<stop offset="1" stop-color="#E9E9FF"/>
</linearGradient>
<linearGradient id="paint20_linear_6995_4467" x1="111.608" y1="108.95" x2="96.2819" y2="40.1625" gradientUnits="userSpaceOnUse">
<stop offset="0.04" stop-color="#C7C6FF"/>
<stop offset="1" stop-color="#E9E9FF"/>
</linearGradient>
<linearGradient id="paint21_linear_6995_4467" x1="111.237" y1="107.605" x2="96.5178" y2="41.5335" gradientUnits="userSpaceOnUse">
<stop offset="0.04" stop-color="#C7C6FF"/>
<stop offset="1" stop-color="#E9E9FF"/>
</linearGradient>
<linearGradient id="paint22_linear_6995_4467" x1="110.867" y1="106.269" x2="96.7549" y2="42.9011" gradientUnits="userSpaceOnUse">
<stop offset="0.04" stop-color="#C7C6FF"/>
<stop offset="1" stop-color="#E9E9FF"/>
</linearGradient>
<linearGradient id="paint23_linear_6995_4467" x1="110.506" y1="104.933" x2="96.9785" y2="44.2815" gradientUnits="userSpaceOnUse">
<stop offset="0.04" stop-color="#759FDC"/>
<stop offset="1" stop-color="#E9E9FF"/>
</linearGradient>
<linearGradient id="paint24_linear_6995_4467" x1="110.136" y1="103.598" x2="97.2148" y2="45.6501" gradientUnits="userSpaceOnUse">
<stop offset="0.04" stop-color="#C7C6FF"/>
<stop offset="1" stop-color="#E9E9FF"/>
</linearGradient>
<linearGradient id="paint25_linear_6995_4467" x1="109.766" y1="102.251" x2="97.4516" y2="47.0188" gradientUnits="userSpaceOnUse">
<stop offset="0.04" stop-color="#C7C6FF"/>
<stop offset="1" stop-color="#E9E9FF"/>
</linearGradient>
<linearGradient id="paint26_linear_6995_4467" x1="109.4" y1="100.915" x2="97.6923" y2="48.3874" gradientUnits="userSpaceOnUse">
<stop offset="0.04" stop-color="#C7C6FF"/>
<stop offset="1" stop-color="#E9E9FF"/>
</linearGradient>
<linearGradient id="paint27_linear_6995_4467" x1="109.026" y1="99.5779" x2="97.9246" y2="49.7547" gradientUnits="userSpaceOnUse">
<stop offset="0.04" stop-color="#C7C6FF"/>
<stop offset="1" stop-color="#E9E9FF"/>
</linearGradient>
<linearGradient id="paint28_linear_6995_4467" x1="108.66" y1="98.2436" x2="98.1541" y2="51.1248" gradientUnits="userSpaceOnUse">
<stop offset="0.04" stop-color="#C7C6FF"/>
<stop offset="1" stop-color="#E9E9FF"/>
</linearGradient>
<linearGradient id="paint29_linear_6995_4467" x1="108.291" y1="96.8964" x2="98.3919" y2="52.4931" gradientUnits="userSpaceOnUse">
<stop offset="0.04" stop-color="#C7C6FF"/>
<stop offset="1" stop-color="#E9E9FF"/>
</linearGradient>
<linearGradient id="paint30_linear_6995_4467" x1="107.916" y1="95.5626" x2="98.6237" y2="53.875" gradientUnits="userSpaceOnUse">
<stop offset="0.04" stop-color="#C7C6FF"/>
<stop offset="1" stop-color="#E9E9FF"/>
</linearGradient>
<linearGradient id="paint31_linear_6995_4467" x1="107.547" y1="94.2265" x2="98.862" y2="55.2432" gradientUnits="userSpaceOnUse">
<stop offset="0.04" stop-color="#C7C6FF"/>
<stop offset="1" stop-color="#E9E9FF"/>
</linearGradient>
<linearGradient id="paint32_linear_6995_4467" x1="107.176" y1="92.891" x2="99.0978" y2="56.6121" gradientUnits="userSpaceOnUse">
<stop offset="0.04" stop-color="#C7C6FF"/>
<stop offset="1" stop-color="#E9E9FF"/>
</linearGradient>
<linearGradient id="paint33_linear_6995_4467" x1="106.805" y1="91.5552" x2="99.3223" y2="57.9807" gradientUnits="userSpaceOnUse">
<stop offset="0.04" stop-color="#C7C6FF"/>
<stop offset="1" stop-color="#E9E9FF"/>
</linearGradient>
<linearGradient id="paint34_linear_6995_4467" x1="106.439" y1="90.2084" x2="99.5625" y2="59.3494" gradientUnits="userSpaceOnUse">
<stop offset="0.04" stop-color="#C7C6FF"/>
<stop offset="1" stop-color="#E9E9FF"/>
</linearGradient>
<linearGradient id="paint35_linear_6995_4467" x1="106.066" y1="88.8733" x2="99.7968" y2="60.7187" gradientUnits="userSpaceOnUse">
<stop offset="0.04" stop-color="#C7C6FF"/>
<stop offset="1" stop-color="#E9E9FF"/>
</linearGradient>
<linearGradient id="paint36_linear_6995_4467" x1="105.712" y1="87.5366" x2="100.038" y2="62.0864" gradientUnits="userSpaceOnUse">
<stop offset="0.04" stop-color="#C7C6FF"/>
<stop offset="1" stop-color="#E9E9FF"/>
</linearGradient>
<linearGradient id="paint37_linear_6995_4467" x1="105.338" y1="86.2029" x2="100.27" y2="63.4683" gradientUnits="userSpaceOnUse">
<stop offset="0.04" stop-color="#C7C6FF"/>
<stop offset="1" stop-color="#E9E9FF"/>
</linearGradient>
<linearGradient id="paint38_linear_6995_4467" x1="104.971" y1="84.8556" x2="100.499" y2="64.8365" gradientUnits="userSpaceOnUse">
<stop offset="0.04" stop-color="#C7C6FF"/>
<stop offset="1" stop-color="#E9E9FF"/>
</linearGradient>
<linearGradient id="paint39_linear_6995_4467" x1="104.601" y1="83.5185" x2="100.736" y2="66.2038" gradientUnits="userSpaceOnUse">
<stop offset="0.04" stop-color="#C7C6FF"/>
<stop offset="1" stop-color="#E9E9FF"/>
</linearGradient>
<linearGradient id="paint40_linear_6995_4467" x1="104.229" y1="82.1839" x2="100.97" y2="67.5736" gradientUnits="userSpaceOnUse">
<stop offset="0.04" stop-color="#C7C6FF"/>
<stop offset="1" stop-color="#E9E9FF"/>
</linearGradient>
<linearGradient id="paint41_linear_6995_4467" x1="103.86" y1="80.8497" x2="101.209" y2="68.9437" gradientUnits="userSpaceOnUse">
<stop offset="0.04" stop-color="#83AFF0"/>
<stop offset="1" stop-color="#E9E9FF"/>
</linearGradient>
<linearGradient id="paint42_linear_6995_4467" x1="103.49" y1="79.5014" x2="101.445" y2="70.3111" gradientUnits="userSpaceOnUse">
<stop offset="0.04" stop-color="#C7C6FF"/>
<stop offset="1" stop-color="#E9E9FF"/>
</linearGradient>
<radialGradient id="paint43_radial_6995_4467" cx="0" cy="0" r="1" gradientTransform="matrix(11.9928 23.9857 -51.9905 20.6862 89.1064 57.8292)" gradientUnits="userSpaceOnUse">
<stop offset="0.116583" stop-color="#FAFAFF"/>
<stop offset="0.548986" stop-color="#71A5F1"/>
<stop offset="1" stop-color="#5493EF"/>
</radialGradient>
<linearGradient id="paint44_linear_6995_4467" x1="87.0168" y1="64.1412" x2="99.7417" y2="90.648" gradientUnits="userSpaceOnUse">
<stop stop-color="white"/>
<stop offset="1" stop-color="white" stop-opacity="0"/>
</linearGradient>
<linearGradient id="paint45_linear_6995_4467" x1="41.5157" y1="98.4407" x2="39.0332" y2="155.075" gradientUnits="userSpaceOnUse">
<stop stop-color="#90B9F6" stop-opacity="0.93"/>
<stop offset="1" stop-color="#ECEBFF" stop-opacity="0.9"/>
</linearGradient>
<linearGradient id="paint46_linear_6995_4467" x1="74.5705" y1="96.1814" x2="58.0951" y2="159.446" gradientUnits="userSpaceOnUse">
<stop stop-color="white"/>
<stop offset="1" stop-color="white" stop-opacity="0"/>
</linearGradient>
<radialGradient id="paint47_radial_6995_4467" cx="0" cy="0" r="1" gradientTransform="matrix(0.958561 9.86494 -33.3918 0.506494 54.8861 119.4)" gradientUnits="userSpaceOnUse">
<stop stop-color="#0658D0"/>
<stop offset="0.374937" stop-color="#0658D0" stop-opacity="0.54"/>
<stop offset="1" stop-color="#0658D0" stop-opacity="0.13"/>
</radialGradient>
<linearGradient id="paint48_linear_6995_4467" x1="44.4309" y1="121.953" x2="70.4874" y2="122.27" gradientUnits="userSpaceOnUse">
<stop stop-color="white"/>
<stop offset="1" stop-color="white" stop-opacity="0"/>
</linearGradient>
<clipPath id="clip1_6995_4467">
<rect width="106.222" height="125.639" fill="white" transform="translate(49.1289 12.1426)"/>
</clipPath>
</defs>
</svg>
